<svg width="815" height="642" viewBox="0 0 815 642" fill="none" xmlns="http://www.w3.org/2000/svg">
<path opacity="0.5" d="M167.127 47.9395C100.881 103.525 118.66 182.957 73.7941 260.5C58.1757 287.482 20.3233 333.567 9.79407 363.5C-14.3793 432.015 8.51604 513.474 53.0458 567.891C74.2797 593.851 99.0819 617.634 129.09 628.576C152.167 636.99 176.91 637.341 201.201 637.56L626.756 641.943C674.269 642.425 727.062 640.686 761.223 603.96C784.768 578.672 794.332 541.742 802.448 506.491C812.422 463.176 821.459 416.136 805.943 374.882C788.219 327.681 743.397 300.932 715.553 260.203C670.365 194.216 671.403 94.4096 613.858 41.7308C586.994 17.1444 551.546 7.50265 517.004 2.68179C451.884 -6.41941 390.2 10.7604 326.25 8.36456C271.585 6.31935 212.476 9.88387 167.127 47.9395Z" fill="#E7ECFF"/>
<path opacity="0.24" d="M149.312 469.444C111.903 473.204 73.3458 477.337 40.4271 495.724C36.0211 498.191 31.5476 501.1 29.1166 505.539C24.2379 514.469 29.775 526.24 38.3676 531.615C46.9602 536.99 57.5617 537.603 67.6736 538.045C247.73 545.886 428.057 542.808 608.265 539.746C660.597 538.861 713.757 537.841 763.911 522.651C772.926 519.929 782.835 515.847 786.228 506.951C790.668 495.316 780.539 482.423 768.722 478.8C756.905 475.177 744.295 477.881 732.073 479.463C689.633 484.957 646.822 476.554 604.568 469.836C521.849 456.704 436.025 446.022 352.243 444.032C323.679 443.368 299.286 453.268 271.33 457.18C230.967 462.862 189.895 465.362 149.312 469.444Z" fill="#505F98"/>
<path d="M268.672 279.323C235.714 279.474 208.888 279.957 208.888 279.957C208.888 279.957 240.775 238.041 268.552 253.57C296.329 269.1 328.238 279.411 328.238 279.411C328.238 279.411 301.629 279.172 268.672 279.323Z" fill="white"/>
<path d="M637.463 292.163C641.208 292.163 644.244 289.127 644.244 285.382C644.244 281.637 641.208 278.601 637.463 278.601C633.718 278.601 630.682 281.637 630.682 285.382C630.682 289.127 633.718 292.163 637.463 292.163Z" fill="#FF6584"/>
<path d="M587.267 392.952L638.787 333.791L640.377 335.176L588.858 394.337L587.267 392.952Z" fill="#3F3D56"/>
<path d="M640.175 345.057C646.168 345.057 651.025 340.199 651.025 334.207C651.025 328.215 646.168 323.357 640.175 323.357C634.183 323.357 629.325 328.215 629.325 334.207C629.325 340.199 634.183 345.057 640.175 345.057Z" fill="#3F3D56"/>
<path d="M608.013 370.826C608.013 370.826 628.845 344.28 602.2 326.069L608.013 370.826Z" fill="#3F3D56"/>
<path d="M262.566 417.487C300.742 488.271 381.765 518.657 381.765 518.657C381.765 518.657 400.892 434.279 362.716 363.496C324.54 292.712 243.517 262.326 243.517 262.326C243.517 262.326 224.39 346.703 262.566 417.487Z" fill="#3F3D56"/>
<path d="M288.393 394.506C357.304 436.083 383.844 518.668 383.844 518.668C383.844 518.668 298.657 533.842 229.745 492.264C160.834 450.687 134.294 368.102 134.294 368.102C134.294 368.102 219.481 352.928 288.393 394.506Z" fill="#111B47"/>
<path d="M561.776 394.872C492.49 435.881 465.219 518.317 465.219 518.317C465.219 518.317 550.282 534.264 619.568 493.254C688.854 452.245 716.125 369.809 716.125 369.809C716.125 369.809 631.062 353.862 561.776 394.872Z" fill="#3F3D56"/>
<path d="M586.927 419.95C548.133 490.359 466.856 520.013 466.856 520.013C466.856 520.013 448.479 435.511 487.273 365.101C526.068 294.692 607.344 265.038 607.344 265.038C607.344 265.038 625.722 349.54 586.927 419.95Z" fill="#111B47"/>
<path fill-rule="evenodd" clip-rule="evenodd" d="M188.544 292.841C188.544 297.71 192.491 301.657 197.36 301.657C202.226 301.651 206.17 297.708 206.175 292.841C206.175 287.973 202.228 284.026 197.36 284.026C192.491 284.026 188.544 287.973 188.544 292.841ZM190.013 292.841C190.013 288.784 193.302 285.495 197.36 285.495C201.415 285.5 204.701 288.786 204.706 292.841C204.706 296.899 201.417 300.188 197.36 300.188C193.302 300.188 190.013 296.899 190.013 292.841Z" fill="#3F3D56"/>
<path fill-rule="evenodd" clip-rule="evenodd" d="M546.594 239.269H565.582V220.282H546.594V239.269ZM564.121 237.809H548.055V221.742H564.121V237.809Z" fill="#3F3D56"/>
<path d="M725.728 337.642C692.77 337.792 665.944 338.276 665.944 338.276C665.944 338.276 697.831 296.36 725.608 311.889C753.385 327.419 785.294 337.73 785.294 337.73C785.294 337.73 758.685 337.491 725.728 337.642Z" fill="white"/>
<path d="M624.009 195.235C591.051 195.386 564.225 195.869 564.225 195.869C564.225 195.869 596.112 153.953 623.889 169.483C651.667 185.013 683.575 195.324 683.575 195.324C683.575 195.324 656.967 195.085 624.009 195.235Z" fill="white"/>
<path d="M410.26 191.029C416.529 191.029 421.611 182.917 421.611 172.909C421.611 162.902 416.529 154.789 410.26 154.789C403.992 154.789 398.91 162.902 398.91 172.909C398.91 182.917 403.992 191.029 410.26 191.029Z" fill="#6C63FF"/>
<path opacity="0.2" d="M410.26 191.029C416.529 191.029 421.611 182.917 421.611 172.909C421.611 162.902 416.529 154.789 410.26 154.789C403.992 154.789 398.91 162.902 398.91 172.909C398.91 182.917 403.992 191.029 410.26 191.029Z" fill="black"/>
<path d="M410.26 184.229C414.182 184.229 417.361 179.161 417.361 172.909C417.361 166.657 414.182 161.589 410.26 161.589C406.339 161.589 403.16 166.657 403.16 172.909C403.16 179.161 406.339 184.229 410.26 184.229Z" fill="#6C63FF"/>
<path d="M462.781 143.189C468.031 152.369 474.78 161.189 483.73 164.369C486.57 165.369 489.73 165.939 491.73 168.479C493.009 170.355 493.837 172.501 494.151 174.749C497.421 190.819 495.231 208.569 501.651 223.249C506.851 235.139 516.801 242.889 524.711 252.479C532.621 262.069 538.831 276.409 534.031 288.529C532.644 291.888 530.499 294.88 527.763 297.27C525.027 299.661 521.775 301.386 518.26 302.309C511.641 304.099 504.73 303.309 498.01 302.159C489.15 300.589 480.13 298.159 472.75 292.159C459.98 281.789 454.581 263.159 447.901 246.599C444.761 238.839 440.59 230.709 433.69 227.929C425.78 224.749 416.9 230.059 411.771 237.849C406.641 245.639 404.36 255.429 401.88 264.849C399.08 275.479 395.53 286.529 388.17 293.479C384.979 296.594 380.953 298.717 376.58 299.592C372.207 300.466 367.675 300.056 363.531 298.409C355.331 294.989 348.841 286.349 346.961 276.319C344.051 260.859 351.021 242.319 342.471 230.099C339.151 225.369 334.081 222.789 330.471 218.309C326.021 212.699 324.391 204.709 324.041 197.039C323.291 180.659 328.91 162.409 341.55 155.629C344.93 153.819 348.7 152.869 351.67 150.229C361.67 141.349 356.96 119.519 367.31 111.229C370.31 108.819 374.07 108.149 377.69 107.639C387.83 106.229 397.901 106.069 408.101 106.099C414.681 106.099 421.47 103.909 427.98 104.389C445.49 105.709 454.261 128.319 462.781 143.189Z" fill="#965D7B"/>
<path d="M275.051 474.239L278.881 519.609L546.761 518.019L541.661 468.489L451.091 457.949L292.271 467.529L275.051 474.239Z" fill="#575988"/>
<path opacity="0.05" d="M275.051 474.239L278.881 519.609L546.761 518.019L541.661 468.489L451.091 457.949L292.271 467.529L275.051 474.239Z" fill="black"/>
<path d="M451.32 505.959L362.141 514.309C362.141 514.309 423.241 529.869 458.911 522.309L451.32 505.959Z" fill="#F7C4A7"/>
<path opacity="0.1" d="M451.32 505.959L362.141 514.309C362.141 514.309 423.241 529.869 458.911 522.309L451.32 505.959Z" fill="black"/>
<path d="M383.391 186.429C383.391 186.429 400.851 232.349 375.041 252.839C349.231 273.329 370.49 330.639 370.49 330.639L469.92 326.089C469.92 326.089 479.791 261.579 474.471 247.909C474.471 247.909 450.941 254.739 445.631 240.319C440.321 225.899 436.521 186.429 436.521 186.429H383.391Z" fill="#F7C4A7"/>
<path d="M360.62 464.209C360.62 464.209 276.751 462.309 252.091 456.209C227.431 450.109 206.171 479.359 214.901 496.059C223.631 512.759 247.901 524.139 247.901 524.139C247.901 524.139 372.751 530.209 399.701 513.139C399.701 513.139 409.951 483.919 399.701 478.229H269.551L365.55 476.329L360.62 464.209Z" fill="#575988"/>
<path d="M493.831 455.489C493.831 455.489 521.91 461.559 560.62 446.379C560.62 446.379 633.101 444.099 608.821 490.379C584.541 536.659 450.191 525.289 450.191 525.289C450.191 525.289 442.191 508.209 450.191 503.659C458.191 499.109 527.611 469.889 549.191 471.399L489.191 483.159L493.831 455.489Z" fill="#575988"/>
<path opacity="0.1" d="M439.961 208.519C438.511 197.709 437.661 188.899 437.661 188.899H384.531C386.984 195.858 388.687 203.059 389.61 210.379C397.06 215.596 406.01 218.236 415.098 217.901C424.186 217.565 432.916 214.271 439.961 208.519Z" fill="black"/>
<path d="M412.421 215.449C435.473 215.449 454.161 196.762 454.161 173.709C454.161 150.657 435.473 131.969 412.421 131.969C389.368 131.969 370.681 150.657 370.681 173.709C370.681 196.762 389.368 215.449 412.421 215.449Z" fill="#F7C4A7"/>
<path d="M387.951 246.389C387.951 246.389 337.861 255.879 331.791 268.389C325.721 280.899 326.48 323.799 326.48 323.799C326.48 323.799 328.761 394.009 311.301 402.729L246.03 448.269C246.03 448.269 199.731 407.659 188.351 431.569C176.97 455.479 243 464.209 243 464.209L316.62 442.209L340.151 427.029C340.151 427.029 351.151 421.719 352.291 408.809L362.161 330.629L401.63 319.249H465.36L473.901 294.869C473.901 294.869 489.65 307.489 487.37 319.249C485.09 331.009 491.161 407.249 491.161 407.249C491.161 407.249 496.091 424.329 506.341 429.249L565.55 450.569C565.55 450.569 628.171 456.639 632.341 429.319C636.511 401.999 570.86 433.109 570.86 433.109L523.8 396.679C523.8 396.679 520.01 381.499 518.49 370.869C516.97 360.239 514.701 314.709 514.701 314.709C514.701 314.709 529.12 266.889 487.38 258.549L433.49 241.849L387.951 246.389Z" fill="#F7C4A7"/>
<path opacity="0.1" d="M354.36 256.059L362.141 307.479C362.141 307.479 354.141 331.389 362.141 354.919C370.141 378.449 352.26 466.109 352.26 466.109C352.26 466.109 445.99 496.109 503.26 461.559C503.26 461.559 461.141 372.759 478.971 343.159C496.801 313.559 479.26 301.979 479.26 301.979L482.06 247.569L469.161 243.779L461.57 297.569C461.57 297.569 409.2 333.999 370.49 302.119L362.141 243.679L354.36 256.059Z" fill="black"/>
<path opacity="0.07" d="M408.5 317.179C404.447 310.7 398.125 305.964 390.768 303.895C383.411 301.826 375.547 302.573 368.711 305.989C381.421 315.499 395.43 318.039 408.5 317.179Z" fill="white"/>
<path opacity="0.07" d="M430.01 311.479C434.064 305 440.386 300.264 447.743 298.195C455.1 296.126 462.964 296.873 469.8 300.289C457.1 309.799 443.08 312.349 430.01 311.479Z" fill="white"/>
<path opacity="0.1" d="M354.36 256.059L362.141 304.819C362.141 304.819 354.141 328.729 362.141 352.259C370.141 375.789 352.26 463.449 352.26 463.449C352.26 463.449 445.99 493.449 503.26 458.899C503.26 458.899 461.141 370.099 478.971 340.499C496.801 310.899 479.26 299.319 479.26 299.319L482 244.869L469.101 241.079L461.51 294.969C461.51 294.969 409.14 331.399 370.43 299.519L362.081 241.079L354.36 256.059Z" fill="black"/>
<path d="M353.98 255.679L362.141 305.579C362.141 305.579 354.141 329.489 362.141 353.019C370.141 376.549 352.26 464.209 352.26 464.209C352.26 464.209 445.99 494.209 503.26 459.659C503.26 459.659 461.141 370.859 478.971 341.259C496.801 311.659 479.26 300.079 479.26 300.079L482 245.629L469.101 241.839L461.51 295.729C461.51 295.729 409.14 332.159 370.43 300.279L362.081 241.839L353.98 255.679Z" fill="#FC6681"/>
<path d="M392.5 482.809L412.26 480.149C412.26 480.149 435.031 450.929 451.351 473.319C451.351 473.319 458.181 487.739 466.531 490.399C472.241 492.125 478.079 493.392 483.99 494.189L450.221 503.679C450.221 503.679 435.42 512.409 419.86 510.129C410.701 508.734 401.342 509.515 392.541 512.409L392.5 482.809Z" fill="#F7C4A7"/>
<path opacity="0.1" d="M370.68 358.899C370.68 358.899 406.35 364.209 412.42 354.729L370.68 358.899Z" fill="black"/>
<path opacity="0.1" d="M438.26 352.829C438.26 352.829 445.091 359.659 472.411 354.729L438.26 352.829Z" fill="black"/>
<path opacity="0.1" d="M368.781 246.949C368.781 246.949 394.961 250.739 399.901 248.469L368.781 246.949Z" fill="black"/>
<path opacity="0.1" d="M426.471 246.949C426.471 246.949 452.651 250.739 457.591 248.469L426.471 246.949Z" fill="black"/>
<path opacity="0.1" d="M395.351 479.959C395.351 479.959 402.561 513.959 395.351 515.159C388.141 516.359 377.891 509.559 377.891 508.799C377.891 508.039 382.44 486.409 382.44 486.409L395.351 479.959Z" fill="black"/>
<path d="M394.591 479.959C394.591 479.959 401.801 513.959 394.591 515.159C387.381 516.359 377.13 509.559 377.13 508.799C377.13 508.039 381.68 486.409 381.68 486.409L394.591 479.959Z" fill="#575988"/>
<path opacity="0.1" d="M359.36 241.979C356.18 249.369 355.05 258.089 358.43 265.389C361.01 270.959 366.051 275.469 367.021 281.529C368.241 289.129 362.611 296.859 364.711 304.259C365.511 307.099 367.381 309.499 369.281 311.749C375.061 318.579 382.741 325.189 391.661 324.659C393.071 310.879 381.16 297.509 385.06 284.219C386.46 279.459 389.741 275.499 391.721 270.959C395.011 263.429 394.541 254.829 393.351 246.699C391.621 234.909 387.24 220.439 375.55 214.919C370.17 212.379 362.55 212.199 360.63 219.089C359.63 222.769 362.03 226.229 362.36 229.829C362.78 234.399 361.13 237.869 359.36 241.979Z" fill="black"/>
<path d="M359.36 240.839C356.18 248.229 355.05 256.949 358.43 264.249C361.01 269.819 366.051 274.329 367.021 280.389C368.241 287.989 362.611 295.719 364.711 303.119C365.511 305.959 367.381 308.359 369.281 310.609C375.061 317.439 382.741 324.049 391.661 323.519C393.071 309.739 381.16 296.369 385.06 283.079C386.46 278.319 389.741 274.359 391.721 269.819C395.011 262.289 394.541 253.689 393.351 245.559C391.621 233.769 387.24 219.299 375.55 213.779C370.17 211.239 362.55 211.059 360.63 217.949C359.63 221.629 362.03 225.089 362.36 228.689C362.78 233.269 361.13 236.739 359.36 240.839Z" fill="#965D7B"/>
<path opacity="0.1" d="M362.331 153.219C362.331 153.219 417.74 145.629 419.25 157.009C420.76 168.389 469.721 187.009 469.721 187.009L457.581 157.009L435.19 119.819C435.19 119.819 394.19 116.819 392.31 119.819C390.43 122.819 368.781 132.719 368.781 132.719L362.331 153.219Z" fill="black"/>
<path d="M362.331 152.459C362.331 152.459 417.74 144.869 419.25 156.249C420.76 167.629 469.721 186.249 469.721 186.249L457.581 156.249L435.19 119.069C435.19 119.069 394.19 116.069 392.31 119.069C390.43 122.069 368.781 131.969 368.781 131.969L362.331 152.459Z" fill="#965D7B"/>
<path opacity="0.1" d="M458.75 233.569C461.445 236.796 463.349 240.607 464.31 244.699C465.23 248.609 465.26 252.699 466.14 256.619C468.01 264.969 473.53 271.989 479.3 278.309C481.168 280.599 483.447 282.519 486.02 283.969C488.66 285.269 492.02 285.539 494.47 283.969C492.15 282.069 490.89 279.159 490.06 276.269C488.893 272.24 488.373 268.052 488.52 263.859C488.77 256.859 490.82 249.469 487.91 243.089C486.23 239.409 483.1 236.609 479.91 234.089C477.694 232.287 475.302 230.713 472.77 229.389C468.06 227.039 462.65 226.009 457.45 225.499C450.67 224.799 456.6 230.989 458.75 233.569Z" fill="black"/>
<path d="M458.75 232.419C461.448 235.652 463.352 239.47 464.31 243.569C465.23 247.479 465.26 251.569 466.14 255.489C468.01 263.839 473.53 270.859 479.3 277.179C481.168 279.469 483.447 281.389 486.02 282.839C488.66 284.139 492.02 284.409 494.47 282.839C492.15 280.939 490.89 278.029 490.06 275.139C488.893 271.11 488.373 266.921 488.52 262.729C488.77 255.729 490.82 248.339 487.91 241.959C486.23 238.279 483.1 235.479 479.91 232.959C477.694 231.157 475.302 229.583 472.77 228.259C468.06 225.909 462.65 224.879 457.45 224.369C450.67 223.659 456.6 229.849 458.75 232.419Z" fill="#965D7B"/>
</svg>
